<?xml version="1.0" encoding="UTF-8"?>
<!DOCTYPE svg PUBLIC "-//W3C//DTD SVG 1.1//EN" "http://www.w3.org/Graphics/SVG/1.1/DTD/svg11.dtd">
<svg xmlns="http://www.w3.org/2000/svg" xml:space="preserve" version="1.1" style="shape-rendering:geometricPrecision;text-rendering:geometricPrecision;image-rendering:optimizeQuality;fill-rule:evenodd;clip-rule:evenodd" viewBox="0 0 36146.22 9243.28" xmlns:xlink="http://www.w3.org/1999/xlink">
 <g id="layer-main" style="fill:#f2f2f2;">
  <polygon id="letter-double-t" style="fill:#d5d5d5;" class="fil0 str0" points="12.04,7.08 4262.29,7.08 6387.42,7.08 19846.53,7.08 21971.65,7.08 36139.13,7.08 36139.13,2132.21 21971.65,2132.21 21971.65,9215.95 19846.53,9215.95 19846.53,2132.21 6387.42,2132.21 6387.42,9215.95 4262.29,9215.95 4262.29,2132.21 12.04,2132.21 "/>
  <rect id="letter-1-i" class="fil0 str0" x="7095.79" y="2840.58" width="2125.12" height="6375.37"/>
  <polygon id="letter-1-k" class="fil0 str0" points="9929.29,2840.59 12054.41,2840.59 12054.41,4257.34 14179.53,4257.34 14179.53,2840.59 16304.66,2840.59 16304.66,4257.34 16304.66,4901.18 16304.66,5674.08 12762.78,5674.08 12762.78,6382.46 16304.66,6382.46 16304.66,7622.11 16304.66,7799.21 16304.66,9215.95 14179.53,9215.95 14179.53,7799.21 12054.41,7799.21 12054.41,9215.95 9929.29,9215.95 9929.29,7799.21 9929.29,6382.46 9929.29,5674.08 9929.29,4257.34 "/>
  <rect id="letter-2-i" class="fil0 str0" x="17013.02" y="2840.58" width="2125.12" height="6375.37"/>
  <polygon id="letter-2-k" class="fil0 str0" points="22680.02,2840.58 24805.15,2840.58 24805.15,4257.33 26930.27,4257.33 26930.27,2840.58 29055.39,2840.58 29055.39,4257.33 29055.39,4901.18 29055.39,5674.08 25513.52,5674.08 25513.52,6382.45 29055.39,6382.45 29055.39,7622.11 29055.39,7799.2 29055.39,9215.95 26930.27,9215.95 26930.27,7799.2 24805.15,7799.2 24805.15,9215.95 22680.02,9215.95 22680.02,7799.2 22680.02,6382.45 22680.02,5674.08 22680.02,4257.33 "/>
  <path id="letter-o" class="fil0 str0" d="M29763.76 2840.58l6375.37 0 0 6375.37 -6375.37 0 0 -6375.37zm2125.12 2125.12l2125.12 0 0 2125.12 -2125.12 0 0 -2125.12z"/>
  <polygon id="triangle" class="fil0 str0" points="12.04,2840.58 3553.92,2840.58 3553.92,9215.95 "/>
 </g>
</svg>
